<svg class="absolute z-[10] min-w-[100vw] top-0 left-[50%] translate-x-[-50%] logo-svg w-auto h-screen" xmlns="http://www.w3.org/2000/svg" viewBox="0 0 1920 943" fill="none"><g clip-path="url(#mask)"><rect class="w-[200%] translate-x-[-50%]" xmlns="http://www.w3.org/2000/svg" width="1920" height="943" fill="white"/><g class="buenro-logo" style="translate: none; rotate: none; scale: none; transform-origin: 0px 0px; opacity: 0;" data-svg-origin="959.8699951171875 472" transform="matrix(0.4,0,0,0.4,575.922,283.2)"><path d="M869 381H953.627V465.372H869V381Z" fill="#101010"/><path d="M869 478.117H953.627V563H869V478.117Z" fill="#101010"/><path d="M966.372 381H1005.24C1030.37 381 1050.74 401.371 1050.74 426.5C1050.74 451.628 1030.37 472 1005.24 472C1030.37 472 1050.74 492.371 1050.74 517.5C1050.74 542.628 1030.37 563 1005.24 563H966.372V381Z" fill="#101010"/></g></g><defs xmlns="http://www.w3.org/2000/svg"><clipPath xmlns="http://www.w3.org/2000/svg" id="mask"><rect class="mask hidden" x="960" width="960" height="943" rx="80" fill="white" style="translate: none; rotate: none; scale: none; display: block; opacity: 1; visibility: inherit; transform-origin: 0px 0px;" data-svg-origin="1440 471.5" transform="matrix(0,0,0,1,960,0)"/><rect class="mask hidden" width="960" height="943" rx="80" fill="white" style="translate: none; rotate: none; scale: none; display: block; opacity: 0; visibility: hidden; transform-origin: 0px 0px;" data-svg-origin="480 471.5" transform="matrix(0,0,0,1,960,0)"/></clipPath></defs></svg>