<svg class="bue-text h-[2.2rem] w-auto" xmlns="http://www.w3.org/2000/svg" viewBox="0 0 224 87" fill="currentColor" style="translate: none; rotate: none; scale: none; transform: translate(39%, -55%);"><path fill-rule="evenodd" clip-rule="evenodd" d="M46.5002 42.2216C51.1669 43.0544 55.1253 45.5111 58.3753 49.5917C61.6253 53.6723 63.2503 58.2942 63.2503 63.4574C63.2503 67.8711 62.0836 71.8684 59.7503 75.4493C57.5003 78.947 54.2086 81.7368 49.8753 83.8187C45.5419 85.8174 40.5002 86.8167 34.7502 86.8167H0V0H33.1252C39.0419 0 44.1252 0.999331 48.3752 2.99799C52.6253 4.99665 55.8336 7.70317 58.0003 11.1175C60.167 14.4486 61.2503 18.1961 61.2503 22.36C61.2503 27.3566 59.917 31.5205 57.2503 34.8516C54.5836 38.1827 51.0003 40.6394 46.5002 42.2216ZM14.2501 36.4755H31.8752C36.5418 36.4755 40.1669 35.4345 42.7502 33.3526C45.4169 31.1874 46.7502 28.1061 46.7502 24.1088C46.7502 20.1948 45.4169 17.1551 42.7502 14.9899C40.1669 12.7414 36.5418 11.6172 31.8752 11.6172H14.2501V36.4755ZM33.5002 75.1995C38.3335 75.1995 42.1252 74.0336 44.8752 71.7019C47.6252 69.3701 49.0002 66.1223 49.0002 61.9584C49.0002 57.7112 47.5419 54.3385 44.6252 51.8402C41.7085 49.3419 37.8335 48.0927 33.0002 48.0927H14.2501V75.1995H33.5002Z" fill="currentColor"/><path fill-rule="evenodd" clip-rule="evenodd" d="M223.038 49.6963C223.038 52.2779 222.872 54.6097 222.538 56.6916H169.913C170.33 62.188 172.371 66.6017 176.038 69.9328C179.705 73.2638 184.205 74.9294 189.538 74.9294C197.205 74.9294 202.621 71.7232 205.788 65.3109H221.163C219.08 71.6399 215.288 76.8448 209.788 80.9254C204.371 84.9227 197.621 86.9213 189.538 86.9213C182.955 86.9213 177.038 85.464 171.788 82.5493C166.621 79.5513 162.538 75.3874 159.538 70.0577C156.621 64.6446 155.163 58.3988 155.163 51.3202C155.163 44.2417 156.58 38.0375 159.413 32.7077C162.33 27.2947 166.371 23.1308 171.538 20.2161C176.788 17.3014 182.788 15.8441 189.538 15.8441C196.038 15.8441 201.83 17.2598 206.913 20.0912C211.996 22.9227 215.955 26.92 218.788 32.0832C221.622 37.1631 223.038 43.0341 223.038 49.6963ZM208.163 45.1994C208.08 39.9529 206.205 35.7474 202.538 32.5828C198.871 29.4183 194.33 27.836 188.913 27.836C183.996 27.836 179.788 29.4183 176.288 32.5828C172.788 35.6641 170.705 39.8696 170.038 45.1994H208.163Z" fill="currentColor"/><path d="M91.7474 83.4414C95.9967 85.6912 102.363 86.8347 109.37 86.8161C116.281 86.7977 120.675 86.7518 126.742 83.4414C131.757 80.7049 134.756 78.3533 137.676 73.4425C140.99 67.869 140.99 57.4442 140.99 57.4442V15.8038L126.742 15.8038L126.742 55.3194C126.742 61.4854 125.2 66.1933 122.118 69.4429C118.951 72.7759 114.702 74.4424 109.37 74.4424C104.037 74.4424 99.8294 72.7759 96.7466 69.4429C93.6638 66.1932 92.1223 61.4854 92.1223 55.3194V15.8038L77.9996 15.8038L77.9996 57.4442C77.9996 63.6935 79.2077 69.0263 81.624 73.4425C84.0403 77.8587 87.4148 81.1917 91.7474 83.4414Z" fill="currentColor"/></svg>