<svg class="bue-text w-auto h-[2.2rem] pt-[.4rem]" xmlns="http://www.w3.org/2000/svg" viewBox="0 0 195 72" fill="currentColor" style="translate: none; rotate: none; scale: none; transform: translate(-39%, 55%);"><path d="M31.6199 0.88206C38.6269 0.863445 44.9928 2.00694 49.2421 4.25669C53.5748 6.50646 56.9492 9.83944 59.3655 14.2556C61.7818 18.6718 62.9899 24.0046 62.9899 30.254V71.8943H48.8672V32.3787C48.8672 26.2127 47.3258 21.5049 44.2429 18.2552C41.1601 14.9222 36.9524 13.2557 31.6199 13.2557C26.2875 13.2557 22.0381 14.9222 18.872 18.2552C15.7891 21.5049 14.2477 26.2127 14.2477 32.3787V71.8943H0V30.254C0 30.254 2.38419e-06 19.8291 3.31371 14.2556C6.23343 9.34487 9.23258 6.99325 14.2477 4.25669C20.3144 0.946345 24.7089 0.900418 31.6199 0.88206Z" fill="currentColor"/><path d="M95.4115 12.0059C97.4945 8.50625 100.244 5.79821 103.66 3.88174C107.16 1.88195 111.284 0.88206 116.033 0.88206V15.6305H112.409C106.826 15.6305 102.577 17.047 99.6608 19.8801C96.8279 22.7131 95.4115 27.6292 95.4115 34.6285V71.8943H81.1638V0.98733H95.4115V12.0059Z" fill="currentColor"/><path fill-rule="evenodd" clip-rule="evenodd" d="M141.378 67.625C146.627 70.5414 152.501 71.9996 159 71.9996C165.582 71.9996 171.581 70.5414 176.997 67.625C182.496 64.6253 186.829 60.4174 189.995 55.0013C193.161 49.5852 194.744 43.3775 194.744 36.3783C194.744 29.379 193.203 23.1714 190.12 17.7553C187.037 12.3392 182.829 8.17295 177.497 5.25659C172.165 2.34024 166.207 0.88206 159.625 0.88206C153.043 0.88206 147.085 2.34024 141.753 5.25659C136.42 8.17295 132.213 12.3392 129.13 17.7553C126.047 23.1714 124.505 29.379 124.505 36.3783C124.505 43.4608 126.005 49.7102 129.005 55.1263C132.004 60.459 136.129 64.6253 141.378 67.625ZM169.248 57.0011C166.082 58.7509 162.666 59.6258 159 59.6258C153.251 59.6258 148.46 57.626 144.627 53.6265C140.878 49.5436 139.003 43.7941 139.003 36.3783C139.003 31.3788 139.92 27.1709 141.753 23.7546C143.586 20.255 146.044 17.6303 149.127 15.8805C152.293 14.1306 155.709 13.2557 159.375 13.2557C163.041 13.2557 166.457 14.1306 169.623 15.8805C172.789 17.6303 175.331 20.255 177.247 23.7546C179.163 27.1709 180.122 31.3788 180.122 36.3783C180.122 41.3778 179.122 45.6273 177.122 49.1269C175.122 52.6265 172.498 55.2513 169.248 57.0011Z" fill="currentColor"/></svg>