<svg class="w-[.6rem] ml-[.2rem] arrow-right" viewBox="0 0 24 23" fill="currentColor" xmlns="http://www.w3.org/2000/svg" style="translate: none; rotate: none; scale: none; transform: translate(0rem, 0px);"><path d="M2 10C1.17157 10 0.5 10.6716 0.5 11.5C0.5 12.3284 1.17157 13 2 13V10ZM23.0607 12.5607C23.6464 11.9749 23.6464 11.0251 23.0607 10.4393L13.5147 0.893398C12.9289 0.307612 11.9792 0.307612 11.3934 0.893398C10.8076 1.47918 10.8076 2.42893 11.3934 3.01472L19.8787 11.5L11.3934 19.9853C10.8076 20.5711 10.8076 21.5208 11.3934 22.1066C11.9792 22.6924 12.9289 22.6924 13.5147 22.1066L23.0607 12.5607ZM2 13H22V10H2V13Z" fill="currentColor"/></svg>