<svg xmlns="http://www.w3.org/2000/svg" viewBox="0 0 29 29" fill="currentColor"><g filter="url(#filter0_b_8714_47973)"><circle cx="14.035" cy="14.4305" r="14.035" fill="currentColor" fill-opacity="0.45"/></g><g filter="url(#filter1_b_8714_47973)"><path d="M14.281 11.0678L14.696 11.413C15.3196 10.6634 16.2288 10.2974 17.1391 10.2974C18.684 10.2974 20.1181 11.3294 20.1181 13.2241C20.1181 14.1937 19.6276 15.1508 18.7059 16.2132C17.7839 17.2759 16.4994 18.3676 15.0275 19.6167C14.401 20.1484 13.472 20.1412 12.8542 19.5999C11.4757 18.392 10.1807 17.2527 9.22694 16.1562C8.26061 15.0451 7.73707 14.0791 7.73707 13.2241C7.73707 11.3323 9.17402 10.2918 10.72 10.2918C11.6271 10.2918 12.5341 10.6575 13.159 11.4118C13.5509 11.8847 14.3039 11.8844 14.696 11.413L14.281 11.0678Z" stroke="white" stroke-width="1.07962"/></g><defs><filter id="filter0_b_8714_47973" x="-3.59873" y="-3.20322" width="35.2678" height="35.2678" filterUnits="userSpaceOnUse" color-interpolation-filters="sRGB"><feFlood flood-opacity="0" result="BackgroundImageFix"/><feGaussianBlur in="BackgroundImageFix" stdDeviation="1.79936"/><feComposite in2="SourceAlpha" operator="in" result="effect1_backgroundBlur_8714_47973"/><feBlend mode="normal" in="SourceGraphic" in2="effect1_backgroundBlur_8714_47973" result="shape"/></filter><filter id="filter1_b_8714_47973" x="3.59854" y="6.15323" width="20.6584" height="17.9963" filterUnits="userSpaceOnUse" color-interpolation-filters="sRGB"><feFlood flood-opacity="0" result="BackgroundImageFix"/><feGaussianBlur in="BackgroundImageFix" stdDeviation="1.79936"/><feComposite in2="SourceAlpha" operator="in" result="effect1_backgroundBlur_8714_47973"/><feBlend mode="normal" in="SourceGraphic" in2="effect1_backgroundBlur_8714_47973" result="shape"/></filter></defs></svg>